<?xml version="1.0" encoding="UTF-8"?>
<svg width="800" height="800" viewBox="0 0 800 800" fill="none" xmlns="http://www.w3.org/2000/svg" preserveAspectRatio="xMidYMid meet">
  <rect width="800" height="800" rx="40" fill="#FFF5F6" />
  <g transform="translate(120,120)">
    <defs>
      <linearGradient id="a" x1="0" y1="0" x2="1" y2="1">
        <stop offset="0%" stop-color="#FFD7D0" />
        <stop offset="100%" stop-color="#FFF1F3" />
      </linearGradient>
    </defs>

    <rect x="0" y="0" width="560" height="560" rx="28" fill="url(#a)" />

    <!-- left person -->
    <circle cx="170" cy="200" r="48" fill="#FFD7B5" />
    <rect x="130" y="260" width="80" height="120" rx="16" fill="#6CC3D5" />

    <!-- right person -->
    <circle cx="390" cy="180" r="44" fill="#FFD7D0" />
    <rect x="360" y="232" width="70" height="110" rx="14" fill="#F28CA0" />

    <!-- hearts -->
    <path d="M280 60c8-8 22-8 30 0 8 8 8 22 0 30L280 140 240 100c-8-8-8-22 0-30 8-8 22-8 30 0z" fill="#FF5A7A" opacity="0.95" />

    <!-- platform shapes -->
    <rect x="80" y="420" width="180" height="34" rx="10" fill="#79C7D7" />
    <rect x="300" y="430" width="200" height="34" rx="10" fill="#F7A7B1" />
  </g>
</svg>
